<svg width="23" height="23" viewBox="0 0 23 23" fill="none" xmlns="http://www.w3.org/2000/svg">
<path fill-rule="evenodd" clip-rule="evenodd" d="M6.97973 1.03972C8.12387 0.987046 8.48866 0.975342 11.4031 0.975342C14.3176 0.975342 14.6824 0.988022 15.8256 1.03972C16.9687 1.09141 17.749 1.27381 18.4318 1.53814C19.1468 1.80833 19.7954 2.23067 20.3319 2.77689C20.8781 3.31238 21.2995 3.96004 21.5687 4.67598C21.834 5.35875 22.0154 6.13906 22.0681 7.28027C22.1207 8.42636 22.1324 8.79115 22.1324 11.7046C22.1324 14.6191 22.1198 14.9839 22.0681 16.128C22.0164 17.2693 21.834 18.0496 21.5687 18.7323C21.2994 19.4484 20.8774 20.0971 20.3319 20.6334C19.7954 21.1796 19.1468 21.601 18.4318 21.8702C17.749 22.1355 16.9687 22.3169 15.8275 22.3696C14.6824 22.4222 14.3176 22.434 11.4031 22.434C8.48866 22.434 8.12387 22.4213 6.97973 22.3696C5.83853 22.3179 5.05821 22.1355 4.37544 21.8702C3.65942 21.6009 3.01069 21.1789 2.4744 20.6334C1.92855 20.0976 1.50614 19.4491 1.23663 18.7333C0.972298 18.0505 0.790875 17.2702 0.738204 16.129C0.685533 14.9829 0.673828 14.6181 0.673828 11.7046C0.673828 8.79018 0.686508 8.42538 0.738204 7.28222C0.7899 6.13906 0.972298 5.35875 1.23663 4.67598C1.50654 3.96012 1.92927 3.31171 2.47538 2.77591C3.01091 2.23018 3.65899 1.80778 4.37446 1.53814C5.05724 1.27381 5.83755 1.09239 6.97876 1.03972H6.97973ZM15.7387 2.97099C14.6073 2.9193 14.2679 2.90857 11.4031 2.90857C8.53841 2.90857 8.19897 2.9193 7.06752 2.97099C6.02092 3.01879 5.45325 3.19338 5.07479 3.34067C4.57442 3.53574 4.21645 3.76691 3.84092 4.14244C3.48495 4.48875 3.211 4.91035 3.03915 5.37631C2.89187 5.75476 2.71727 6.32244 2.66948 7.36903C2.61778 8.50049 2.60705 8.83992 2.60705 11.7046C2.60705 14.5694 2.61778 14.9088 2.66948 16.0403C2.71727 17.0869 2.89187 17.6545 3.03915 18.033C3.21082 18.4982 3.48491 18.9206 3.84092 19.2669C4.18719 19.6229 4.60953 19.897 5.07479 20.0686C5.45325 20.2159 6.02092 20.3905 7.06752 20.4383C8.19897 20.49 8.53743 20.5007 11.4031 20.5007C14.2688 20.5007 14.6073 20.49 15.7387 20.4383C16.7853 20.3905 17.353 20.2159 17.7315 20.0686C18.2318 19.8736 18.5898 19.6424 18.9653 19.2669C19.3214 18.9206 19.5954 18.4982 19.7671 18.033C19.9144 17.6545 20.089 17.0869 20.1368 16.0403C20.1885 14.9088 20.1992 14.5694 20.1992 11.7046C20.1992 8.83992 20.1885 8.50049 20.1368 7.36903C20.089 6.32244 19.9144 5.75476 19.7671 5.37631C19.572 4.87593 19.3409 4.51796 18.9653 4.14244C18.619 3.78649 18.1974 3.51254 17.7315 3.34067C17.353 3.19338 16.7853 3.01879 15.7387 2.97099ZM10.0327 15.0122C10.7981 15.3308 11.6503 15.3738 12.4438 15.1339C13.2373 14.8939 13.923 14.3859 14.3835 13.6966C14.8441 13.0074 15.0512 12.1795 14.9692 11.3546C14.8873 10.5296 14.5215 9.75872 13.9343 9.17351C13.56 8.79942 13.1074 8.51298 12.609 8.33481C12.1107 8.15664 11.5791 8.09117 11.0525 8.14312C10.5258 8.19506 10.0173 8.36313 9.56335 8.63522C9.10946 8.90731 8.72153 9.27665 8.42751 9.71665C8.13349 10.1567 7.94068 10.6564 7.86297 11.1798C7.78525 11.7033 7.82457 12.2375 7.97809 12.7439C8.1316 13.2504 8.3955 13.7165 8.75077 14.1087C9.10605 14.5009 9.54387 14.8095 10.0327 15.0122ZM7.50352 7.80503C8.01562 7.29293 8.62358 6.8867 9.29268 6.60956C9.96177 6.33241 10.6789 6.18976 11.4031 6.18976C12.1274 6.18976 12.8445 6.33241 13.5136 6.60955C14.1827 6.8867 14.7906 7.29293 15.3027 7.80503C15.8149 8.31714 16.2211 8.92509 16.4982 9.59419C16.7754 10.2633 16.918 10.9804 16.918 11.7046C16.918 12.4289 16.7754 13.146 16.4982 13.8151C16.2211 14.4842 15.8149 15.0922 15.3027 15.6043C14.2685 16.6385 12.8658 17.2195 11.4031 17.2195C9.94049 17.2195 8.53776 16.6385 7.50352 15.6043C6.46928 14.57 5.88825 13.1673 5.88825 11.7046C5.88825 10.242 6.46928 8.83927 7.50352 7.80503ZM18.1411 7.01106C18.268 6.89135 18.3696 6.7474 18.4399 6.58772C18.5102 6.42804 18.5477 6.25589 18.5502 6.08145C18.5528 5.90701 18.5203 5.73384 18.4547 5.57218C18.3891 5.41052 18.2918 5.26366 18.1684 5.1403C18.0451 5.01694 17.8982 4.91959 17.7365 4.854C17.5749 4.78842 17.4017 4.75594 17.2273 4.75848C17.0528 4.76102 16.8807 4.79854 16.721 4.86881C16.5613 4.93908 16.4174 5.04067 16.2976 5.16757C16.0648 5.41438 15.9374 5.7422 15.9423 6.08145C15.9473 6.4207 16.0842 6.74466 16.3241 6.98458C16.564 7.22449 16.888 7.36145 17.2273 7.3664C17.5665 7.37134 17.8943 7.24388 18.1411 7.01106Z" fill="white"/>
</svg>
