<svg width="122" height="24" viewBox="0 0 122 24" fill="none" xmlns="http://www.w3.org/2000/svg">
<path d="M7.40355 3.98156H0V0.331787H18.9319V3.98156H11.5284V23.6682H7.40355V3.98156Z" fill="white"/>
<path d="M39.08 14.8756L34.8494 4.70045L30.6716 14.8756H39.08ZM40.402 18.2488H29.2438L27.0227 23.6682H22.7393L32.7869 0.331787H36.8589L46.9595 23.6682H42.6231L40.402 18.2488Z" fill="white"/>
<path d="M56.7431 23.2258C55.1566 22.7281 53.8874 22.0645 52.9355 21.1797L54.3634 17.8065C55.2624 18.5806 56.3729 19.1889 57.7479 19.6313C59.0699 20.129 60.392 20.3502 61.7669 20.3502C63.4063 20.3502 64.6755 20.0737 65.4687 19.5207C66.2619 18.9677 66.685 18.2489 66.685 17.3088C66.685 16.6452 66.4735 16.0922 65.9975 15.6498C65.5216 15.2074 64.9399 14.8756 64.2524 14.6544C63.5649 14.4332 62.613 14.1567 61.3967 13.8249C59.7045 13.3825 58.3296 12.9954 57.2719 12.553C56.2143 12.1106 55.3153 11.447 54.5749 10.5622C53.8345 9.67742 53.4644 8.46083 53.4644 6.91245C53.4644 5.64056 53.7817 4.42397 54.4691 3.37328C55.1566 2.32258 56.1614 1.49309 57.4834 0.829497C58.8584 0.221202 60.4977 -0.110596 62.4544 -0.110596C63.8293 -0.110596 65.1514 0.0553029 66.4735 0.4424C67.7955 0.774197 68.9061 1.32719 69.9108 1.99079L68.5888 5.36406C67.6369 4.75576 66.5792 4.31337 65.5216 3.98157C64.4639 3.64977 63.4063 3.53917 62.4544 3.53917C60.815 3.53917 59.5987 3.81567 58.8055 4.42397C58.0123 4.97696 57.5892 5.75116 57.5892 6.74655C57.5892 7.41014 57.8007 7.96314 58.2767 8.40553C58.7526 8.84793 59.3343 9.17973 60.0218 9.40093C60.7093 9.62212 61.6612 9.89862 62.8775 10.2304C64.5168 10.6175 65.8918 11.0599 66.9494 11.5023C68.0071 11.9447 68.9061 12.6083 69.6993 13.4931C70.4397 14.3779 70.8098 15.5945 70.8098 17.0876C70.8098 18.3594 70.4925 19.5207 69.8051 20.5714C69.1176 21.6221 68.1128 22.4516 66.7379 23.0599C65.3629 23.6682 63.7236 24 61.7669 24C60.0218 24 58.3824 23.7235 56.7431 23.2258Z" fill="white"/>
<path d="M84.0832 3.98156H76.6797V0.331787H95.6645V3.98156H88.261V23.6682H84.0832V3.98156Z" fill="white"/>
<path d="M113.222 15.4286V23.6682H109.097V15.4839L100.318 0.331787H104.76L111.318 11.7235L117.875 0.331787H122L113.222 15.4286Z" fill="white"/>
</svg>
